<svg width="30" height="30" viewBox="0 0 30 30" fill="none" xmlns="http://www.w3.org/2000/svg">
<circle cx="15" cy="15" r="14.5" stroke="#CCCCCC"/>
<path d="M15 13.2C14.5226 13.2 14.0648 13.3896 13.7272 13.7272C13.3896 14.0648 13.2 14.5226 13.2 15C13.2 15.4774 13.3896 15.9352 13.7272 16.2728C14.0648 16.6104 14.5226 16.8 15 16.8C15.4774 16.8 15.9352 16.6104 16.2728 16.2728C16.6104 15.9352 16.8 15.4774 16.8 15C16.8 14.5226 16.6104 14.0648 16.2728 13.7272C15.9352 13.3896 15.4774 13.2 15 13.2ZM15 12C15.7956 12 16.5587 12.3161 17.1213 12.8787C17.6839 13.4413 18 14.2044 18 15C18 15.7956 17.6839 16.5587 17.1213 17.1213C16.5587 17.6839 15.7956 18 15 18C14.2044 18 13.4413 17.6839 12.8787 17.1213C12.3161 16.5587 12 15.7956 12 15C12 14.2044 12.3161 13.4413 12.8787 12.8787C13.4413 12.3161 14.2044 12 15 12ZM18.9 11.85C18.9 12.0489 18.821 12.2397 18.6803 12.3803C18.5397 12.521 18.3489 12.6 18.15 12.6C17.9511 12.6 17.7603 12.521 17.6197 12.3803C17.479 12.2397 17.4 12.0489 17.4 11.85C17.4 11.6511 17.479 11.4603 17.6197 11.3197C17.7603 11.179 17.9511 11.1 18.15 11.1C18.3489 11.1 18.5397 11.179 18.6803 11.3197C18.821 11.4603 18.9 11.6511 18.9 11.85ZM15 10.2C13.5156 10.2 13.2732 10.2042 12.5826 10.2348C12.1122 10.257 11.7966 10.32 11.5038 10.434C11.2434 10.5348 11.0556 10.6554 10.8558 10.8558C10.668 11.0372 10.5236 11.2588 10.4334 11.5038C10.3194 11.7978 10.2564 12.1128 10.2348 12.5826C10.2036 13.245 10.2 13.4766 10.2 15C10.2 16.4844 10.2042 16.7268 10.2348 17.4174C10.257 17.8872 10.32 18.2034 10.4334 18.4956C10.5354 18.7566 10.6554 18.9444 10.8546 19.1436C11.0568 19.3452 11.2446 19.4658 11.5026 19.5654C11.799 19.68 12.1146 19.7436 12.5826 19.7652C13.245 19.7964 13.4766 19.8 15 19.8C16.4844 19.8 16.7268 19.7958 17.4174 19.7652C17.8866 19.743 18.2028 19.68 18.4956 19.5666C18.7554 19.4652 18.9444 19.3446 19.1436 19.1454C19.3458 18.9432 19.4664 18.7554 19.566 18.4974C19.68 18.2016 19.7436 17.8854 19.7652 17.4174C19.7964 16.755 19.8 16.5234 19.8 15C19.8 13.5156 19.7958 13.2732 19.7652 12.5826C19.743 12.1134 19.68 11.7966 19.566 11.5038C19.4756 11.259 19.3314 11.0376 19.1442 10.8558C18.9628 10.6679 18.7413 10.5235 18.4962 10.4334C18.2022 10.3194 17.8866 10.2564 17.4174 10.2348C16.755 10.2036 16.5234 10.2 15 10.2ZM15 9C16.6302 9 16.8336 9.006 17.4732 9.036C18.1122 9.066 18.5472 9.1662 18.93 9.315C19.326 9.4674 19.6596 9.6738 19.9932 10.0068C20.2983 10.3067 20.5344 10.6696 20.685 11.07C20.8332 11.4522 20.934 11.8878 20.964 12.5268C20.9922 13.1664 21 13.3698 21 15C21 16.6302 20.994 16.8336 20.964 17.4732C20.934 18.1122 20.8332 18.5472 20.685 18.93C20.5348 19.3307 20.2987 19.6936 19.9932 19.9932C19.6932 20.2982 19.3304 20.5343 18.93 20.685C18.5478 20.8332 18.1122 20.934 17.4732 20.964C16.8336 20.9922 16.6302 21 15 21C13.3698 21 13.1664 20.994 12.5268 20.964C11.8878 20.934 11.4528 20.8332 11.07 20.685C10.6694 20.5347 10.3065 20.2986 10.0068 19.9932C9.70164 19.6933 9.46556 19.3305 9.315 18.93C9.1662 18.5478 9.066 18.1122 9.036 17.4732C9.0078 16.8336 9 16.6302 9 15C9 13.3698 9.006 13.1664 9.036 12.5268C9.066 11.8872 9.1662 11.4528 9.315 11.07C9.46514 10.6693 9.70128 10.3064 10.0068 10.0068C10.3066 9.70154 10.6695 9.46544 11.07 9.315C11.4528 9.1662 11.8872 9.066 12.5268 9.036C13.1664 9.0078 13.3698 9 15 9Z" fill="#888888"/>
</svg>
