<svg width="60" height="30" viewBox="0 0 60 30" fill="none" xmlns="http://www.w3.org/2000/svg">
<rect width="60" height="30" rx="15" fill="#3772FF"/>
<path d="M16.4881 21C17.4132 21 18.3005 20.6325 18.9547 19.9783C19.6089 19.3241 19.9764 18.4368 19.9764 17.5116C19.9764 17.1088 19.8695 16.7223 19.7439 16.3628C18.9685 17.1288 18.3797 17.5116 17.9764 17.5116C19.8346 14.2558 18.8137 12.8605 16.023 11C16.2555 13.3256 14.7225 14.3833 14.0983 14.9707C13.5892 15.4496 13.2356 16.0705 13.0836 16.7527C12.9315 17.435 12.9879 18.1472 13.2454 18.797C13.503 19.4468 13.9498 20.0043 14.528 20.3971C15.1062 20.7899 15.7891 20.9999 16.4881 21ZM16.8183 12.7372C18.3257 14.0163 18.3332 15.0102 17.1685 17.0507C16.8146 17.6707 17.2625 18.4419 17.9764 18.4419C18.2964 18.4419 18.6202 18.3488 18.962 18.1651C18.8607 18.5479 18.6719 18.9019 18.4105 19.1993C18.1491 19.4967 17.8222 19.7294 17.4556 19.879C17.0889 20.0286 16.6926 20.0911 16.2977 20.0614C15.9029 20.0318 15.5203 19.9109 15.1801 19.7083C14.8399 19.5057 14.5514 19.2269 14.3372 18.8938C14.1231 18.5607 13.9892 18.1825 13.9461 17.7889C13.903 17.3953 13.9519 16.997 14.0889 16.6255C14.2259 16.254 14.4472 15.9193 14.7355 15.6479C14.7941 15.593 15.0913 15.3293 15.1044 15.3177C15.3016 15.1409 15.4639 14.9842 15.6244 14.8126C16.1964 14.1995 16.6076 13.5195 16.8178 12.7372H16.8183Z" fill="white"/>
<path d="M28.859 20L29.366 17.582H27.507V16.347H29.639L30.068 14.345H28.131V13.11H30.328L30.848 10.718H32.148L31.628 13.11H34.254L34.774 10.718H36.074L35.567 13.11H37.309V14.345H35.294L34.865 16.347H36.685V17.582H34.605L34.085 20H32.785L33.305 17.582H30.679L30.159 20H28.859ZM30.939 16.347H33.565L33.994 14.345H31.368L30.939 16.347ZM42.9499 20V18.18H38.3869V17.088L42.7289 10.9H44.3149V16.984H45.5889V18.18H44.3149V20H42.9499ZM39.8819 16.984H43.0279V12.421L39.8819 16.984Z" fill="white"/>
</svg>
