<svg width="40" height="40" viewBox="0 0 40 40" fill="none" xmlns="http://www.w3.org/2000/svg">
<circle cx="20" cy="20" r="20" fill="#3772FF"/>
<path d="M19.8 25.6C20.4624 25.6 21 26.1376 21 26.8C21 27.4624 20.4624 28 19.8 28C19.1376 28 18.6 27.4624 18.6 26.8C18.6 26.1376 19.1376 25.6 19.8 25.6ZM19.8 12C22.4512 12 24.6 14.1488 24.6 16.8C24.6 18.532 23.9976 19.432 22.4608 20.7384C20.9192 22.048 20.6 22.6376 20.6 24H19C19 22.0208 19.6296 21.044 21.4248 19.5192C22.6384 18.488 23 17.9472 23 16.8C23 15.032 21.568 13.6 19.8 13.6C18.032 13.6 16.6 15.032 16.6 16.8V17.6H15V16.8C15 14.1488 17.1488 12 19.8 12Z" fill="white"/>
</svg>
