<svg width="30" height="30" viewBox="0 0 30 30" fill="none" xmlns="http://www.w3.org/2000/svg">
<circle cx="15" cy="15" r="14.5" stroke="#CCCCCC"/>
<path d="M11.6665 10.3339C11.6663 10.6875 11.5257 11.0266 11.2755 11.2765C11.0254 11.5264 10.6862 11.6667 10.3326 11.6665C9.97899 11.6663 9.63994 11.5257 9.39003 11.2755C9.14012 11.0254 8.99982 10.6862 9 10.3326C9.00018 9.97899 9.14081 9.63994 9.39097 9.39003C9.64113 9.14012 9.98032 8.99982 10.3339 9C10.6875 9.00018 11.0266 9.14081 11.2765 9.39097C11.5264 9.64113 11.6667 9.98032 11.6665 10.3339ZM11.7065 12.6538H9.04V21H11.7065V12.6538ZM15.9196 12.6538H13.2664V21H15.893V16.6202C15.893 14.1804 19.0728 13.9537 19.0728 16.6202V21H21.706V15.7136C21.706 11.6005 16.9996 11.7538 15.893 13.7737L15.9196 12.6538Z" fill="#888888"/>
</svg>
