<svg width="30" height="30" viewBox="0 0 30 30" fill="none" xmlns="http://www.w3.org/2000/svg">
<circle cx="15" cy="15" r="14.5" stroke="#CCCCCC"/>
<path d="M17.3529 11.2022C16.8964 11.2021 16.458 11.3813 16.1322 11.7011C15.8064 12.021 15.6192 12.4559 15.6109 12.9124L15.594 13.8586C15.593 13.9094 15.5813 13.9594 15.5597 14.0053C15.538 14.0513 15.5068 14.0921 15.4683 14.1252C15.4297 14.1583 15.3846 14.1828 15.3358 14.1972C15.2871 14.2116 15.2359 14.2156 15.1855 14.2088L14.2478 14.0814C13.014 13.9132 11.8318 13.3449 10.6976 12.4C10.3384 14.3884 11.04 15.7658 12.7298 16.8285L13.7793 17.4881C13.8291 17.5194 13.8706 17.5625 13.8999 17.6135C13.9293 17.6646 13.9457 17.722 13.9477 17.7809C13.9497 17.8398 13.9373 17.8982 13.9115 17.9512C13.8857 18.0041 13.8473 18.0499 13.7997 18.0846L12.8434 18.7832C13.4122 18.8186 13.9523 18.7934 14.4004 18.7045C17.2346 18.1386 19.119 16.0061 19.119 12.4883C19.119 12.2012 18.5111 11.2022 17.3529 11.2022ZM14.4094 12.8902C14.4199 12.3111 14.601 11.7481 14.93 11.2714C15.259 10.7948 15.7213 10.4258 16.259 10.2106C16.7967 9.9955 17.3859 9.94375 17.9529 10.0619C18.5199 10.18 19.0394 10.4628 19.4464 10.8748C19.8735 10.8718 20.237 10.9799 21.0497 10.4874C20.8485 11.4725 20.7494 11.9002 20.3204 12.4883C20.3204 17.079 17.4989 19.3112 14.6359 19.8825C12.6728 20.2742 9.81817 19.6308 9 18.7766C9.4169 18.7442 11.1109 18.5621 12.0901 17.8455C11.2617 17.2994 7.96437 15.3591 10.1311 10.1425C11.1482 11.3302 12.1796 12.1387 13.2248 12.5676C13.9204 12.853 14.091 12.847 14.41 12.8908L14.4094 12.8902Z" fill="#888888"/>
</svg>
