<svg width="30" height="30" viewBox="0 0 30 30" fill="none" xmlns="http://www.w3.org/2000/svg">
<rect width="30" height="30" rx="3" fill="#EEEEEE"/>
<path d="M21.5284 11.3058C21.0217 11.53 20.4844 11.6771 19.9342 11.7425C20.5141 11.3957 20.9482 10.8499 21.1554 10.2067C20.6112 10.5306 20.0145 10.7576 19.3926 10.8804C18.9749 10.4334 18.4212 10.137 17.8176 10.0372C17.214 9.93738 16.5944 10.0398 16.055 10.3285C15.5156 10.6172 15.0867 11.076 14.835 11.6336C14.5833 12.1911 14.5228 12.8163 14.663 13.4118C13.5593 13.3565 12.4796 13.0697 11.494 12.57C10.5083 12.0703 9.63879 11.3689 8.94181 10.5114C8.6951 10.9351 8.56545 11.4168 8.56615 11.9071C8.56615 12.8695 9.05597 13.7197 9.80065 14.2175C9.35995 14.2037 8.92895 14.0846 8.54358 13.8704V13.9049C8.54371 14.5459 8.76551 15.167 9.17135 15.6631C9.5772 16.1592 10.1421 16.4997 10.7703 16.6268C10.3612 16.7377 9.93227 16.754 9.51592 16.6746C9.69304 17.2263 10.0383 17.7088 10.5033 18.0545C10.9682 18.4003 11.5297 18.5919 12.109 18.6027C11.5333 19.0549 10.874 19.3892 10.1689 19.5864C9.46387 19.7837 8.72685 19.84 8 19.7522C9.26882 20.5682 10.7458 21.0014 12.2544 21C17.3603 21 20.1526 16.7702 20.1526 13.1018C20.1526 12.9824 20.1492 12.8616 20.1439 12.7434C20.6874 12.3506 21.1565 11.864 21.5291 11.3065L21.5284 11.3058Z" fill="#888888"/>
</svg>
